<?xml version="1.0"?><svg width="5000" height="6000" xmlns="http://www.w3.org/2000/svg" xmlns:xlink="http://www.w3.org/1999/xlink">
 <defs>
  <linearGradient id="linearGradient3256">
   <stop stop-color="#ffffff" stop-opacity="0.661765" offset="0" id="stop3258"/>
   <stop stop-color="#fffffc" stop-opacity="0" offset="1" id="stop3260"/>
  </linearGradient>
  <linearGradient id="linearGradient3246">
   <stop stop-color="#00fffc" offset="0" id="stop3248"/>
   <stop stop-color="#00fffc" stop-opacity="0.506" offset="1" id="stop3250"/>
  </linearGradient>
  <linearGradient id="linearGradient3238">
   <stop stop-color="#fffffc" id="stop3240" offset="0"/>
   <stop stop-color="#fffffc" stop-opacity="0" id="stop3242" offset="1"/>
  </linearGradient>
  <linearGradient y2="0.267075" x2="-0.052827" y1="0.267075" x1="-0.73515" gradientTransform="matrix(1.0023618,0,0,1,100.19202,0)" id="linearGradient3218" xlink:href="#linearGradient3246"/>
  <linearGradient y2="0.38017" x2="1.17384" y1="0.38017" x1="0.243322" id="linearGradient3244" xlink:href="#linearGradient3238"/>
  <linearGradient gradientTransform="matrix(-1,0,0,1,132.32599,0.9036872)" y2="0.373149" x2="-0.277607" y1="0.373149" x1="-1.718398" id="linearGradient3254" xlink:href="#linearGradient3256"/>
 </defs>
 <metadata id="metadata3298">image/svg+xml</metadata>
 <g>
  <title>Layer 1</title>
  <g id="layer2"/>
  <g id="layer1">
   <path fill="#ff00ff" fill-rule="evenodd" stroke-width="1px" id="path3997" d="m1342.651245,3451.12207l-609.602478,1048.651367c-259.377899,458.92627 -224.939453,1073.192871 482.222961,1006.707031c145.472168,-13.677246 2347.423584,0 2347.423584,0c922.980469,91.169434 814.850098,-597.142578 582.307129,-943.787598l-627.799561,-1101.084473l-2174.551636,-10.486328z"/>
   <path opacity="0.5" fill="#000000" fill-rule="nonzero" stroke-width="4" stroke-linecap="round" stroke-linejoin="round" stroke-miterlimit="4" stroke-dashoffset="0" id="rect3162" d="m3177.993652,373.897736l-1524.155029,1.379913c-30.800049,0.289276 -58.886353,21.004272 -70.640137,53.817749c-11.754028,32.813416 -4.890869,71.348419 16.761963,96.595825c116.894775,132.284851 160.050049,235.766174 179.594238,351.884766c19.543945,116.118652 11.778564,251.056458 13.170166,426.401672l8.381104,1057.034546l-1205.674927,2080.949707c-0.831787,1.353027 -1.630188,2.734375 -2.394592,4.140137c-157.118225,301.910156 -188.07663,610.799316 -102.967224,848.663086c84.574097,236.369141 291.307434,389.82959 556.741577,373.963867c1.679321,-0.099609 3.105347,0.114746 4.789185,0l2794.483276,2.760254c285.178467,-1.382324 501.365479,-164.62207 574.700928,-415.361816c72.805176,-248.929199 7.668945,-562.612793 -202.342773,-870.742676l-3.591797,-6.899902l-1141.020508,-2014.712891l-21.551514,-1058.414307c-0.040527,-5.125366 0.052979,-8.74292 0,-13.799316c0,-0.892578 0.023682,-1.867554 0,-2.76001c-1.824707,-166.459717 -9.893066,-297.41803 7.183838,-409.842346c17.698242,-116.511169 58.832275,-219.917908 173.607666,-354.644775c21.80542,-25.426208 27.625244,-63.657806 15.564941,-96.595795c-12.060547,-32.937988 -39.62207,-54.084869 -70.640381,-53.817688zm-153.253662,176.632416c-58.796631,100.132935 -101.136719,199.311584 -116.137451,298.067139c-17.51416,115.296448 -13.653076,231.177124 -10.775879,354.644653l-341.228516,0c-2.791504,-0.176025 -5.5896,-0.176025 -8.381104,0c-42.319824,2.667847 -74.1521,43.680542 -71.837646,92.456055c2.314209,48.776001 37.898926,86.843872 80.21875,84.176392l343.623291,0l14.367432,673.411255l-357.990723,0c-2.791504,-0.17627 -5.5896,-0.17627 -8.381104,0c-42.319824,2.66748 -74.1521,43.679932 -71.837646,92.455811c2.314209,48.775635 37.898926,86.843994 80.21875,84.176514l361.582764,0l3.591797,164.212891c0.301514,16.156006 4.442871,31.906982 11.9729,45.538086l272.983154,481.598877l-367.569336,0c-2.791992,-0.17627 -5.5896,-0.17627 -8.380859,0c-42.319824,2.667725 -74.152344,43.680176 -71.837891,92.456299c2.314209,48.775391 37.898926,86.84375 80.21875,84.176514l417.855469,0c15.26416,0.249023 29.477783,-4.642334 41.905273,-13.799561l300.520752,531.277344l-353.20166,0c-2.393311,-0.130127 -4.790283,-0.130127 -7.183594,0c-42.319824,2.286133 -75.019043,43.679932 -73.035156,92.456055c1.983643,48.775391 37.898926,86.462891 80.21875,84.17627l417.855469,0c11.018555,0.179443 21.348877,-3.401611 31.129639,-8.280029l290.942383,513.337646l-331.650391,0c-2.393066,-0.129395 -4.790283,-0.129395 -7.183594,0c-42.31958,2.286133 -75.018799,43.680176 -73.035156,92.456543c1.983643,48.774902 37.898926,86.461914 80.21875,84.175781l417.855469,0c4.05542,0.066406 8.031982,-0.726074 11.9729,-1.379883l5.986572,9.659668c1.105713,2.36084 2.304199,4.664063 3.591797,6.900391c191.709717,278.38916 233.579346,534.274902 181.988525,710.668945c-51.59082,176.394043 -193.104004,294.15332 -431.025635,295.307129l-2798.075195,-2.759277c-1.596191,-0.057617 -3.192993,-0.057617 -4.789185,0c-216.085999,14.625977 -348.756531,-91.907715 -410.671753,-264.949219c-61.915222,-173.041504 -44.547729,-424.917969 93.388916,-689.970215l1216.450439,-2101.648926c8.611084,-14.663818 13.199951,-31.97168 13.170166,-49.678223l-8.380859,-1083.253418c-1.329346,-167.532715 8.062256,-310.649475 -16.762085,-458.140198c-16.405151,-97.468384 -59.249634,-194.65509 -118.532349,-292.547363l1214.055908,-1.379944z"/>
   <path opacity="0.25" fill="none" fill-rule="nonzero" stroke="#000000" stroke-width="8" stroke-linecap="round" stroke-linejoin="round" marker-start="none" marker-mid="none" marker-end="none" stroke-miterlimit="4" stroke-dashoffset="0" d="m1654.006104,462.613464c250.315186,283.271545 212.534424,497.415466 215.255249,840.293396l8.59314,1082.815552l-1219.238281,2105.014404c-295.054932,566.963379 -95.4505,1121.670898 388.494385,1088.915039l2798.5354,3.258789c523.099609,-2.535645 714.092773,-561.20166 308.711426,-1149.87207l-1156.539307,-2042.08252l-21.76709,-1084.549438c-2.720703,-342.877808 -43.894287,-556.18927 201.884033,-844.690002l-1523.928955,0.896851z" id="path2388"/>
   <path opacity="0.25" fill="url(#linearGradient3218)" fill-rule="nonzero" stroke-width="8" stroke-linecap="round" stroke-linejoin="round" marker-start="none" marker-mid="none" marker-end="none" stroke-miterlimit="4" stroke-dashoffset="0" id="path3181" d="m1656.683472,462.613464c250.906494,283.271545 213.036377,497.415466 215.763916,840.293396l8.613037,1082.815552l-1222.117798,2105.014404c-295.751831,566.963379 -95.676208,1121.670898 389.411987,1088.915039l2805.144897,3.258789c524.334961,-2.535645 715.779297,-561.20166 309.44043,-1149.87207l-1159.270264,-2042.08252l-21.819092,-1084.549438c-2.727051,-342.877808 -43.997559,-556.18927 202.360596,-844.690002l-1527.52771,0.896851z"/>
   <path fill="url(#linearGradient3244)" fill-rule="evenodd" stroke-width="1px" opacity="0.665441" id="path3220" d="m1142.483276,5349.182617c-269.205444,28.865234 -482.619751,-186.385742 -309.350525,-566.272461l1237.401917,-2307.035156l-9.098389,-1531.032471c0.861572,-104.865356 -10.704834,-209.730713 -81.886963,-314.596008c155.811768,84.620972 296.914307,174.892578 309.350586,314.596008l18.197021,1614.924561c4.087402,362.742188 -484.621704,1112.500488 -699.641357,1550.779297c-292.663086,596.541016 -679.971069,1038.973145 -464.97229,1238.63623z"/>
   <path fill="url(#linearGradient3254)" fill-rule="evenodd" stroke-width="1px" d="m3845.754395,5330.008789c269.205078,28.865234 373.437012,-196.872559 200.167725,-576.759277l-1237.4021,-2307.034912l9.098633,-1531.032776c-0.861328,-104.86499 10.705078,-209.730225 81.886963,-314.59552c-155.811523,84.620483 -196.830322,174.892578 -209.266602,314.59552l-9.098389,1604.438049c-2.057129,362.765625 521.015625,1081.041504 736.035645,1519.320313c292.662598,596.540283 643.576904,1091.405029 428.578125,1291.068604z" id="path3252"/>
  </g>
 </g>
</svg>